<?xml version="1.0" standalone="no"?>
<!DOCTYPE svg PUBLIC "-//W3C//DTD SVG 20010904//EN"
 "http://www.w3.org/TR/2001/REC-SVG-20010904/DTD/svg10.dtd">
<svg version="1.0" xmlns="http://www.w3.org/2000/svg"
 width="256.000000pt" height="256.000000pt" viewBox="0 0 256.000000 256.000000"
 preserveAspectRatio="xMidYMid meet">
<metadata>
Created by potrace 1.16, written by Peter Selinger 2001-2019
</metadata>
<g transform="translate(0.000000,256.000000) scale(0.100000,-0.100000)"
fill="#FE6E00" stroke="none">
<path d="M908 2207 l-618 -241 0 -658 c0 -362 3 -658 7 -658 4 0 99 30 210 67
l203 68 0 560 0 561 413 67 c226 37 415 67 420 67 4 0 7 -349 7 -775 l0 -775
-37 5 c-21 3 -274 32 -563 65 -289 33 -543 62 -565 65 -22 3 228 -85 555 -195
327 -110 602 -200 610 -200 8 -1 169 45 358 102 l342 102 0 906 0 906 -342
102 c-189 57 -352 102 -363 101 -11 0 -298 -109 -637 -242z"/>
</g>
</svg>