<?xml version="1.0" standalone="no"?>
<!DOCTYPE svg PUBLIC "-//W3C//DTD SVG 20010904//EN"
 "http://www.w3.org/TR/2001/REC-SVG-20010904/DTD/svg10.dtd">
<svg version="1.0" xmlns="http://www.w3.org/2000/svg"
 width="325.000000pt" height="123.000000pt" viewBox="0 0 325.000000 123.000000"
 preserveAspectRatio="xMidYMid meet">
<metadata>
Created by potrace 1.16, written by Peter Selinger 2001-2019
</metadata>
<g transform="translate(0.000000,123.000000) scale(0.100000,-0.100000)"
fill="#FE6E00" stroke="none">
<path d="M350 907 c-133 -37 -209 -145 -197 -283 11 -142 119 -238 268 -237
107 0 205 64 245 159 23 54 18 160 -10 219 -52 112 -188 174 -306 142z m166
-74 c61 -31 97 -91 102 -167 5 -76 -12 -120 -68 -170 -161 -146 -412 42 -321
239 51 110 179 154 287 98z"/>
<path d="M2120 656 l0 -256 30 0 30 0 0 104 0 103 58 6 c110 9 162 59 162 153
0 94 -54 134 -192 142 l-88 5 0 -257z m179 179 c32 -16 41 -33 41 -75 0 -16
-3 -36 -6 -45 -10 -25 -58 -45 -109 -45 l-45 0 0 90 0 90 45 0 c26 0 59 -7 74
-15z"/>
<path d="M1299 800 c-53 -9 -100 -40 -134 -89 -27 -38 -30 -51 -30 -116 0 -65
3 -78 30 -117 41 -58 96 -88 162 -88 63 0 99 13 137 48 35 33 56 80 56 127 l0
36 -77 -3 c-72 -3 -78 -5 -81 -25 -3 -22 0 -23 53 -23 54 0 56 -1 50 -22 -18
-58 -88 -103 -147 -95 -110 15 -177 157 -115 247 38 57 71 75 136 75 48 0 64
-5 95 -28 30 -23 40 -26 51 -17 22 19 19 27 -23 55 -44 29 -112 43 -163 35z"/>
<path d="M2915 804 c-6 -1 -26 -5 -46 -8 -23 -4 -55 -22 -83 -47 -112 -99 -88
-271 47 -341 56 -28 159 -23 209 11 126 86 125 261 -2 351 -27 19 -103 40
-125 34z m86 -64 c96 -49 116 -169 42 -251 -65 -71 -153 -76 -224 -12 -86 78
-68 217 35 264 53 24 97 24 147 -1z"/>
<path d="M740 600 l0 -200 25 0 c25 0 25 1 25 85 0 47 4 85 9 85 5 0 35 -38
67 -85 50 -74 61 -85 86 -85 34 0 35 -2 -36 94 -35 48 -46 71 -37 74 7 2 28
17 45 32 27 25 31 35 31 79 0 41 -5 55 -26 76 -28 29 -80 44 -146 45 l-43 0 0
-200z m148 134 c16 -11 22 -25 22 -54 0 -45 -20 -63 -82 -74 l-38 -7 0 76 0
75 38 0 c21 0 48 -7 60 -16z"/>
<path d="M1030 601 l0 -199 25 -4 25 -5 0 203 0 204 -25 0 -25 0 0 -199z"/>
<path d="M1570 600 l0 -200 25 0 25 0 0 200 0 200 -25 0 -25 0 0 -200z"/>
<path d="M1700 603 c0 -196 1 -203 20 -203 19 0 20 7 20 148 l1 147 154 -159
155 -159 0 211 0 212 -25 0 -25 0 0 -145 c0 -80 -3 -145 -6 -145 -3 0 -70 66
-149 148 l-144 147 -1 -202z"/>
<path d="M2450 601 l0 -201 25 0 c25 0 25 1 25 85 0 47 4 85 9 85 6 0 36 -38
68 -84 49 -72 63 -85 90 -88 36 -4 38 -9 -36 91 -36 50 -50 76 -42 79 8 3 27
16 43 31 56 50 45 151 -21 181 -14 7 -56 15 -93 18 l-68 5 0 -202z m148 133
c16 -11 22 -25 22 -54 0 -45 -20 -63 -82 -74 l-38 -7 0 76 0 75 38 0 c21 0 48
-7 60 -16z"/>
</g>
</svg>
